<svg width="52" height="30" viewBox="0 0 52 30" fill="none" xmlns="http://www.w3.org/2000/svg">
  <line x1="0" y1="11" x2="10" y2="11" stroke="url(#speedGrad)" stroke-width="1.5" stroke-linecap="round"/>
  <line x1="0" y1="15" x2="7" y2="15" stroke="url(#speedGrad)" stroke-width="1" stroke-linecap="round"/>
  <line x1="0" y1="19" x2="5" y2="19" stroke="url(#speedGrad)" stroke-width="0.8" stroke-linecap="round"/>

  <defs>
    <linearGradient id="speedGrad" x1="0" y1="0" x2="1" y2="0">
      <stop offset="0%" stop-color="#007AFF" stop-opacity="0"/>
      <stop offset="100%" stop-color="#007AFF" stop-opacity="0.5"/>
    </linearGradient>
    <linearGradient id="truckBody" x1="0" y1="0" x2="0" y2="1">
      <stop offset="0%" stop-color="#007AFF"/>
      <stop offset="100%" stop-color="#0056CC"/>
    </linearGradient>
    <linearGradient id="cabGrad" x1="0" y1="0" x2="1" y2="1">
      <stop offset="0%" stop-color="#0A84FF"/>
      <stop offset="100%" stop-color="#005DC7"/>
    </linearGradient>
    <filter id="truckGlow">
      <feGaussianBlur stdDeviation="1" result="blur"/>
      <feComposite in="SourceGraphic" in2="blur" operator="over"/>
    </filter>
  </defs>

  <rect x="10" y="4" width="26" height="16" rx="2.5" fill="url(#truckBody)"/>
  <rect x="10" y="4" width="26" height="3" rx="2" fill="rgba(255,255,255,0.25)"/>
  <line x1="23" y1="5" x2="23" y2="20" stroke="rgba(255,255,255,0.2)" stroke-width="1"/>

  <path d="M36 8 L36 20 L47 20 L47 14 L43.5 8 Z" fill="url(#cabGrad)"/>
  <path d="M36.5 8.5 L43 8.5 L46 13 L36.5 13 Z" fill="rgba(255,255,255,0.12)"/>
  <path d="M37.5 9.5 L42.5 9.5 L45.5 13.5 L37.5 13.5 Z" fill="rgba(200,230,255,0.45)" />

  <rect x="44" y="2" width="2" height="7" rx="1" fill="#005DC7"/>
  <circle cx="45" cy="1.5" r="1.5" fill="rgba(0,122,255,0.15)"/>
  <circle cx="45" cy="0" r="1" fill="rgba(0,122,255,0.08)"/>

  <rect x="34.5" y="13" width="3" height="4" rx="0.5" fill="#004AAD"/>

  <rect x="46.5" y="15" width="2" height="2.5" rx="0.8" fill="#FFD60A"/>
  <rect x="46.5" y="15" width="4" height="2.5" rx="1" fill="rgba(255,214,10,0.25)"/>

  <g>
    <circle cx="18" cy="21.5" r="4.5" fill="#003D99" stroke="#0056CC" stroke-width="1"/>
    <circle cx="18" cy="21.5" r="2.8" fill="#0056CC"/>
    <line x1="18" y1="18" x2="18" y2="25" stroke="rgba(255,255,255,0.5)" stroke-width="1"/>
    <line x1="14.5" y1="21.5" x2="21.5" y2="21.5" stroke="rgba(255,255,255,0.5)" stroke-width="1"/>
    <line x1="15.5" y1="18.9" x2="20.5" y2="24.1" stroke="rgba(255,255,255,0.3)" stroke-width="0.8"/>
    <line x1="20.5" y1="18.9" x2="15.5" y2="24.1" stroke="rgba(255,255,255,0.3)" stroke-width="0.8"/>
    <circle cx="18" cy="21.5" r="1" fill="#CCE0FF"/>
  </g>

  <g>
    <circle cx="41" cy="21.5" r="4.5" fill="#003D99" stroke="#0056CC" stroke-width="1"/>
    <circle cx="41" cy="21.5" r="2.8" fill="#0056CC"/>
    <line x1="41" y1="18" x2="41" y2="25" stroke="rgba(255,255,255,0.5)" stroke-width="1"/>
    <line x1="37.5" y1="21.5" x2="44.5" y2="21.5" stroke="rgba(255,255,255,0.5)" stroke-width="1"/>
    <line x1="38.5" y1="18.9" x2="43.5" y2="24.1" stroke="rgba(255,255,255,0.3)" stroke-width="0.8"/>
    <line x1="43.5" y1="18.9" x2="38.5" y2="24.1" stroke="rgba(255,255,255,0.3)" stroke-width="0.8"/>
    <circle cx="41" cy="21.5" r="1" fill="#CCE0FF"/>
  </g>

  <ellipse cx="29" cy="27.5" rx="20" ry="1.5" fill="rgba(0,122,255,0.12)"/>
</svg>